<svg width="68" height="68" viewBox="0 0 68 68" fill="none" xmlns="http://www.w3.org/2000/svg">
<path d="M9.47711 61.2025L4.02051 0H63.9795L58.5171 61.1928L33.9634 68L9.47711 61.2025Z" fill="#939393"/>
<path d="M53.8406 57.2964L58.5087 5.00415H34V62.797L53.8406 57.2964Z" fill="#939393"/>
<path d="M16.5298 27.7033L17.2025 35.2095H34V27.7033H16.5298ZM15.8603 20.0168H34V12.5105H15.1779L15.8603 20.0168ZM34 47.1978L33.967 47.2066L25.6073 44.9493L25.073 38.9626H17.5377L18.5895 50.7485L33.9654 55.0171L34 55.0074V47.1978Z" fill="white"/>
<path d="M33.9741 27.7033V35.2095H43.2172L42.346 44.9445L33.9741 47.204V55.0134L49.3623 50.7485L49.4752 49.4803L51.239 29.7189L51.4222 27.7033L52.7773 12.5105H33.9741V20.0168H44.5512L43.868 27.7033H33.9741Z" fill="white"/>
</svg>
