<svg width="161" height="68" viewBox="0 0 161 68" fill="none" xmlns="http://www.w3.org/2000/svg">
<g clip-path="url(#clip0_13_30)">
<path d="M96.2111 23.5309C92.6934 23.5309 90.0718 25.2694 90.0718 29.4499C90.0718 32.5993 91.7972 34.7879 96.0214 34.7879C99.6024 34.7879 102.035 32.6688 102.035 29.3198C102.035 25.5258 99.8582 23.5309 96.2111 23.5309ZM89.1756 53.0592C88.3427 54.0866 87.5127 55.1805 87.5127 56.4681C87.5127 59.0402 90.7724 59.8119 95.2517 59.8119C98.965 59.8119 104.019 59.5517 104.019 56.0845C104.019 54.0201 101.587 53.8929 98.5144 53.6993L89.1756 53.0592ZM108.114 23.7246C109.263 25.2058 110.481 27.2643 110.481 30.2238C110.481 37.3608 104.915 41.5443 96.8544 41.5443C94.804 41.5443 92.9492 41.2871 91.7972 40.9641L89.6873 44.3737L95.9553 44.758C107.026 45.4676 113.551 45.7913 113.551 54.3431C113.551 61.7403 107.089 65.9215 95.9553 65.9215C84.3765 65.9215 79.9604 62.9621 79.9604 57.8798C79.9604 54.9846 81.241 53.445 83.4811 51.3178C81.3675 50.4227 80.6669 48.8144 80.6669 47.0759C80.6669 45.6612 81.3675 44.3737 82.5217 43.1497C83.6729 41.9286 84.9514 40.7068 86.4879 39.2922C83.3546 37.7474 80.9852 34.4013 80.9852 29.6406C80.9852 22.2434 85.8468 17.1641 95.6369 17.1641C98.3879 17.1641 100.051 17.4183 101.524 17.8086H114.001V23.2737L108.115 23.7246" fill="#939393"/>
<mask id="mask0_13_30" style="mask-type:luminance" maskUnits="userSpaceOnUse" x="116" y="0" width="20" height="51">
<path d="M116.89 0.583862H135.269V51H116.89V0.583862Z" fill="white"/>
</mask>
<g mask="url(#mask0_13_30)">
<path d="M125.256 12.0337C121.609 12.0337 119.498 9.91243 119.498 6.24191C119.498 2.57804 121.609 0.58313 125.256 0.58313C128.968 0.58313 131.08 2.57878 131.08 6.24191C131.08 9.91169 128.969 12.0337 125.256 12.0337ZM117.002 50.694V45.6117L120.265 45.1638C121.161 45.0344 121.29 44.8408 121.29 43.8733V24.9626C121.29 24.2582 121.098 23.8051 120.457 23.6144L117.002 22.3904L117.706 17.1818H130.95V43.8747C130.95 44.9088 131.014 45.0352 131.976 45.1653L135.238 45.6132V50.6947L117.002 50.694Z" fill="#939393"/>
</g>
<mask id="mask1_13_30" style="mask-type:luminance" maskUnits="userSpaceOnUse" x="134" y="6" width="27" height="45">
<path d="M134.534 6.65222H160.538V51H134.534V6.65222Z" fill="white"/>
</mask>
<g mask="url(#mask1_13_30)">
<path d="M160.538 48.1987C157.787 49.5476 153.757 50.7716 150.108 50.7716C142.495 50.7716 139.617 47.6858 139.617 40.4127V23.5628C139.617 23.1755 139.617 22.919 139.103 22.919H134.623V17.1937C140.257 16.5499 142.495 13.7176 143.198 6.70691H149.278V15.8426C149.278 16.2927 149.278 16.4856 149.789 16.4856H158.809V22.919H149.278V38.2907C149.278 42.0869 150.173 43.5651 153.629 43.5651C155.42 43.5651 157.275 43.115 158.809 42.5377L160.538 48.1987Z" fill="#939393"/>
</g>
<mask id="mask2_13_30" style="mask-type:luminance" maskUnits="userSpaceOnUse" x="0" y="0" width="68" height="68">
<path d="M0 0.583862H67.6347V68H0V0.583862Z" fill="white"/>
</mask>
<g mask="url(#mask2_13_30)">
<path d="M65.7394 31.3177L36.4852 1.90843C36.0846 1.50553 35.609 1.18592 35.0855 0.967864C34.562 0.749807 34.001 0.637573 33.4343 0.637573C32.8677 0.637573 32.3066 0.749807 31.7831 0.967864C31.2596 1.18592 30.784 1.50553 30.3834 1.90843L24.3088 8.01513L32.0133 15.7642C32.919 15.4537 33.8932 15.4047 34.8252 15.6226C35.7573 15.8405 36.61 16.3167 37.2866 16.997C37.9664 17.6817 38.4411 18.5449 38.6563 19.4878C38.8716 20.4308 38.8188 21.4156 38.504 22.3299L45.9306 29.7988C46.8397 29.481 47.8195 29.4273 48.7576 29.644C49.6956 29.8606 50.5539 30.3387 51.234 31.0235C51.7113 31.5024 52.0899 32.0713 52.3483 32.6975C52.6066 33.3237 52.7396 33.995 52.7396 34.673C52.7396 35.3509 52.6066 36.0222 52.3483 36.6484C52.0899 37.2747 51.7113 37.8435 51.234 38.3224C50.7574 38.8024 50.1914 39.1831 49.5683 39.4429C48.9452 39.7027 48.2772 39.8364 47.6027 39.8364C46.9281 39.8364 46.2602 39.7027 45.6371 39.4429C45.014 39.1831 44.448 38.8024 43.9714 38.3224C43.2555 37.6018 42.7675 36.6845 42.5688 35.6857C42.3701 34.687 42.4695 33.6515 42.8547 32.7095L35.928 25.7454V44.0706C36.4308 44.3191 36.8897 44.6487 37.2866 45.0463C38.2494 46.0149 38.7903 47.3282 38.7903 48.6976C38.7903 50.067 38.2494 51.3804 37.2866 52.3489C35.2796 54.3638 32.028 54.3638 30.0269 52.3489C29.5494 51.8697 29.1706 51.3006 28.9121 50.674C28.6537 50.0475 28.5207 49.3759 28.5207 48.6976C28.5207 48.0193 28.6537 47.3477 28.9121 46.7212C29.1706 46.0946 29.5494 45.5255 30.0269 45.0463C30.506 44.5616 31.0773 44.1788 31.7067 43.9206V25.4246C31.0773 25.1664 30.506 24.7836 30.0269 24.2989C29.3061 23.5747 28.8158 22.6513 28.6184 21.6461C28.421 20.641 28.5253 19.5995 28.9182 18.6542L21.3226 11.0145L1.26373 31.1817C0.862878 31.5845 0.544895 32.0627 0.327944 32.5891C0.110994 33.1155 -0.000671387 33.6797 -0.000671387 34.2495C-0.000671387 34.8192 0.110994 35.3834 0.327944 35.9098C0.544895 36.4362 0.862878 36.9144 1.26373 37.3172L30.5179 66.7294C30.9185 67.1323 31.3942 67.4519 31.9177 67.67C32.4411 67.8881 33.0022 68.0003 33.5689 68.0003C34.1355 68.0003 34.6966 67.8881 35.2201 67.67C35.7435 67.4519 36.2192 67.1323 36.6198 66.7294L65.7394 37.4562C66.549 36.6421 67.0038 35.5381 67.0038 34.3869C67.0038 33.2358 66.549 32.1317 65.7394 31.3177Z" fill="#939393"/>
</g>
</g>
<defs>
<clipPath id="clip0_13_30">
<rect width="161" height="68" fill="white"/>
</clipPath>
</defs>
</svg>
