<svg width="68" height="68" viewBox="0 0 68 68" fill="none" xmlns="http://www.w3.org/2000/svg">
<path d="M58.027 13.3298L53.6492 62.3727L33.9706 67.8282L14.3463 62.3802L9.97302 13.3298H58.027Z" fill="#939393"/>
<path d="M34 63.6581L49.9013 59.2498L53.6422 17.3403H34V63.6581Z" fill="#939393"/>
<path d="M25.4896 29.3723H34V23.3564H18.9151L19.059 24.9704L20.5377 41.5484H34V35.5326H26.0395L25.4896 29.3723ZM26.8455 44.5564H20.8065L21.6492 54.0022L33.9723 57.4229L34 57.4154V51.1564L33.9736 51.1634L27.2738 49.3543L26.8455 44.5564Z" fill="white"/>
<path d="M14.4439 0H17.5011V3.02044H20.2977V0H23.3551V9.14666H20.2979V6.08383H17.5013V9.14666H14.4441L14.4439 0ZM27.3752 3.03325H24.6842V0H33.1256V3.03325H30.433V9.14666H27.3758V3.03325H27.3752ZM34.4653 0H37.653L39.6139 3.2139L41.5729 0H44.7619V9.14666H41.7172V4.61308L39.6139 7.86521H39.5611L37.4565 4.61308V9.14666H34.4653V0ZM46.2834 0H49.3415V6.12339H53.6407V9.14666H46.2832V0H46.2834Z" fill="#939393"/>
<path d="M33.9793 41.5484H41.3871L40.6887 49.3505L33.9791 51.1615V57.4201L46.3119 54.0022L46.4023 52.9858L47.8162 37.148L47.963 35.5326H33.9793V41.5484ZM33.9793 29.3576V29.3723H48.5103L48.6309 28.0202L48.9052 24.9704L49.0489 23.3564H33.9793V29.3576Z" fill="white"/>
</svg>
