<svg width="68" height="68" viewBox="0 0 68 68" fill="none" xmlns="http://www.w3.org/2000/svg">
<g clip-path="url(#clip0_13_53)">
<path d="M17.2125 53.0188L0.743744 40.0563L8.92499 24.8625L32.4062 34L17.2125 53.0188Z" fill="#737373"/>
<path d="M68 18.1688L66.725 57.4812L40.5875 68L24.8625 57.8L47.8125 34L37.825 11.9L46.8563 1.0625L68 18.1688Z" fill="#BDBDBD"/>
<path d="M68 18.1688L47.2812 42.6062L37.825 11.9L46.8562 1.0625L68 18.1688Z" fill="#ABABAB"/>
<path d="M32.725 56.4187L5.525 66.3L9.88125 51L15.5125 32.0875L0 26.8812L9.88125 0L31.1312 2.55L52.1687 26.5625L32.725 56.4187Z" fill="#BBBBBB"/>
<path d="M55.25 12.75H12.75V55.25H55.25V12.75Z" fill="#939393"/>
<path d="M16.7875 47.2812H32.725V49.9375H16.7875V47.2812ZM28.1563 21.4625V18.275H19.4438V21.4625H21.8875V32.6188H19.4438V35.9125H28.1563V32.6188H25.7125V21.4625H28.1563ZM36.6563 36.125C35.4432 36.1797 34.2363 35.9237 33.15 35.3812C32.2612 34.8909 31.4691 34.2428 30.8125 33.4688L33.2563 30.7062C33.6975 31.191 34.1972 31.6193 34.7438 31.9813C35.258 32.2828 35.8481 32.4303 36.4438 32.4062C37.0988 32.4563 37.7359 32.1776 38.1438 31.6625C38.6359 31.0287 38.8643 30.2294 38.7813 29.4313V18.0625H42.7125V29.5375C42.7528 30.4773 42.6084 31.4158 42.2875 32.3C42.0072 33.197 41.4939 34.0036 40.8 34.6375C39.5959 35.5315 38.1541 36.0491 36.6563 36.125Z" fill="white"/>
</g>
<defs>
<clipPath id="clip0_13_53">
<rect width="68" height="68" fill="white"/>
</clipPath>
</defs>
</svg>
