<svg width="38" height="68" viewBox="0 0 38 68" fill="none" xmlns="http://www.w3.org/2000/svg">
<g clip-path="url(#clip0_13_61)">
<path d="M36.1132 53.2805H35.855V53.1395H36.5499V53.2805H36.2936V53.9837H36.1132V53.2805ZM37.4992 53.3172H37.4951L37.2394 53.9838H37.1223L36.8682 53.3172H36.8651V53.9838H36.6951V53.1397H36.9453L37.1809 53.7374L37.4157 53.1397H37.665V53.9838H37.499L37.4992 53.3172Z" fill="#939393"/>
<path d="M13.0063 36.0182C13.0063 36.0182 11.2104 37.0376 14.2843 37.3825C18.0083 37.7972 19.9116 37.7377 24.0155 36.9796C24.0155 36.9796 25.0944 37.6399 26.6013 38.2119C17.4015 42.0604 5.78031 37.989 13.0063 36.0182Z" fill="#939393"/>
<path d="M11.8821 30.9961C11.8821 30.9961 9.86785 32.4514 12.9441 32.762C16.9222 33.1626 20.0638 33.1953 25.4999 32.1736C25.4999 32.1736 26.2518 32.9176 27.4341 33.3245C16.311 36.4993 3.92187 33.5749 11.8821 30.9961Z" fill="#939393"/>
<path d="M21.3592 22.477C23.626 25.0244 20.7636 27.3168 20.7636 27.3168C20.7636 27.3168 26.5194 24.4165 23.876 20.7847C21.4072 17.3978 19.5139 15.715 29.7634 9.91284C29.7634 9.91284 13.6751 13.8348 21.3592 22.477Z" fill="#939393"/>
<path d="M33.5266 39.7329C33.5266 39.7329 34.8556 40.8018 32.063 41.6287C26.7528 43.1988 9.96119 43.673 5.29656 41.6912C3.61975 40.9792 6.76425 39.9911 7.75339 39.7838C8.78496 39.5654 9.37447 39.6061 9.37447 39.6061C7.50968 38.3239 -2.67875 42.1238 4.19925 43.2121C22.9566 46.1812 38.392 41.8751 33.5266 39.7329Z" fill="#939393"/>
<path d="M13.8699 25.7926C13.8699 25.7926 5.32861 27.7728 10.8452 28.4919C13.1745 28.7962 17.8178 28.7274 22.143 28.3737C25.6777 28.0826 29.2271 27.4638 29.2271 27.4638C29.2271 27.4638 27.9807 27.9848 27.0789 28.5858C18.4054 30.8124 1.64983 29.7766 6.47355 27.4991C10.553 25.5743 13.8699 25.7926 13.8699 25.7926Z" fill="#939393"/>
<path d="M29.1919 34.1522C38.0089 29.6801 33.9322 25.3825 31.0868 25.9615C30.3894 26.1032 30.0784 26.226 30.0784 26.226C30.0784 26.226 30.3373 25.8301 30.8318 25.6588C36.461 23.7271 40.7902 31.356 29.0146 34.3776C29.0146 34.3776 29.1511 34.2586 29.1919 34.1522Z" fill="#939393"/>
<path d="M23.876 0.543823C23.876 0.543823 28.759 5.31161 19.2447 12.6431C11.6152 18.5243 17.505 21.8775 19.2416 25.7088C14.7881 21.7868 11.5198 18.3342 13.7124 15.1209C16.9306 10.4041 25.8462 8.11717 23.876 0.543823Z" fill="#939393"/>
<path d="M14.7363 46.2704C23.1995 46.7992 36.1958 45.977 36.5036 42.0682C36.5036 42.0682 35.9119 43.55 29.5091 44.7268C22.2856 46.0537 13.3764 45.8987 8.09222 45.0484C8.09222 45.0484 9.17396 45.9222 14.7363 46.2704Z" fill="#939393"/>
<path d="M13.3493 61.2059C12.5509 61.8818 11.7077 62.2613 10.951 62.2613C9.87089 62.2613 9.28733 61.6291 9.28733 60.6152C9.28733 59.5184 9.91256 58.7165 12.4209 58.7165H13.3492L13.3493 61.2059ZM15.5523 63.632V56.1221C15.5523 54.2037 14.4313 52.9377 11.7285 52.9377C10.1506 52.9377 8.76838 53.318 7.64497 53.8031L7.96924 55.1324C8.85375 54.8155 9.99869 54.5205 11.1225 54.5205C12.6795 54.5205 13.3493 55.1324 13.3493 56.3975V57.3466H12.5722C8.78928 57.3466 7.08282 58.7799 7.08282 60.9313C7.08282 62.788 8.20737 63.8433 10.3247 63.8433C11.6858 63.8433 12.7018 63.2949 13.6515 62.4922L13.8239 63.6322L15.5523 63.632Z" fill="#939393"/>
<path d="M22.9045 63.6321H20.1569L16.8501 53.1279H19.2495L21.3014 59.5817L21.7575 61.5227C22.7956 58.7164 23.5297 55.8693 23.8969 53.1279H26.231C25.6057 56.5869 24.4804 60.3835 22.9045 63.6321Z" fill="#939393"/>
<path d="M33.4448 61.2059C32.6449 61.8818 31.8002 62.2613 31.0435 62.2613C29.9653 62.2613 29.3802 61.6291 29.3802 60.6152C29.3802 59.5184 30.007 58.7165 32.5151 58.7165H33.4448V61.2059ZM35.6476 63.632V56.1221C35.6476 54.2037 34.5238 52.9377 31.8241 52.9377C30.2451 52.9377 28.8624 53.318 27.7395 53.8031L28.0633 55.1324C28.9482 54.8155 30.0953 54.5205 31.2182 54.5205C32.774 54.5205 33.4448 55.1324 33.4448 56.3975V57.3466H32.6665C28.8824 57.3466 27.1767 58.7799 27.1767 60.9313C27.1767 62.788 28.3004 63.8433 30.4174 63.8433C31.7792 63.8433 32.7948 63.2949 33.7462 62.4922L33.9192 63.6322L35.6476 63.632Z" fill="#939393"/>
<path d="M4.66729 65.4159C4.03927 66.3109 3.02493 67.0189 1.91444 67.4195L0.826752 66.1702C1.672 65.7468 2.39691 65.0631 2.73372 64.4263C3.02505 63.8599 3.14564 63.1299 3.14564 61.3843V49.3922H5.48619V61.22C5.48606 63.5538 5.29492 64.4965 4.66729 65.4159Z" fill="#939393"/>
</g>
<defs>
<clipPath id="clip0_13_61">
<rect width="38" height="68" fill="white"/>
</clipPath>
</defs>
</svg>
