<svg width="68" height="68" viewBox="0 0 68 68" fill="none" xmlns="http://www.w3.org/2000/svg">
<g clip-path="url(#clip0_13_75)">
<path d="M68 0H0V68H68V0Z" fill="#939393"/>
<path d="M45.6787 53.1252C47.0484 55.3617 48.8304 57.0055 51.9822 57.0055C54.6299 57.0055 56.3212 55.6822 56.3212 53.8538C56.3212 51.6627 54.5835 50.8866 51.6692 49.6119L50.0717 48.9265C45.4607 46.962 42.3974 44.5011 42.3974 39.2985C42.3974 34.5062 46.0489 30.8579 51.7555 30.8579C55.8183 30.8579 58.739 32.2719 60.8438 35.9741L55.8679 39.169C54.7724 37.2046 53.5904 36.4307 51.7555 36.4307C49.8839 36.4307 48.6977 37.618 48.6977 39.169C48.6977 41.086 49.885 41.862 52.6266 43.0493L54.224 43.7337C59.6532 46.0618 62.7186 48.4354 62.7186 53.7717C62.7186 59.5248 58.1993 62.6765 52.1301 62.6765C46.1957 62.6765 42.3618 59.8486 40.4859 56.142L45.6787 53.1252ZM23.1059 53.6789C24.1098 55.4599 25.0229 56.9656 27.2183 56.9656C29.3177 56.9656 30.6421 56.1442 30.6421 52.9504V31.2227H37.0319V53.0367C37.0319 59.6532 33.1527 62.6646 27.4903 62.6646C22.3741 62.6646 19.4113 60.017 17.9045 56.828L23.1059 53.6789Z" fill="white"/>
</g>
<defs>
<clipPath id="clip0_13_75">
<rect width="68" height="68" fill="white"/>
</clipPath>
</defs>
</svg>
