<svg width="270" height="68" viewBox="0 0 270 68" fill="none" xmlns="http://www.w3.org/2000/svg">
<g clip-path="url(#clip0_13_78)">
<path d="M20.1699 7.00654C17.5271 3.87622 15.2515 0.696988 14.7865 0.0366835C14.7376 -0.0122278 14.6642 -0.0122278 14.6152 0.0366835C14.1503 0.696988 11.8746 3.87622 9.2319 7.00654C-13.4515 35.8886 12.8045 55.3799 12.8045 55.3799L13.0247 55.5266C13.2204 58.5345 13.7099 62.8633 13.7099 62.8633H14.6886H15.6674C15.6674 62.8633 16.1568 58.559 16.3526 55.5266L16.5728 55.3554C16.5973 55.3799 42.8533 35.8886 20.1699 7.00654ZM14.6886 54.9396C14.6886 54.9396 13.5141 53.937 13.196 53.4235V53.3744L14.6152 21.9245C14.6152 21.8267 14.7621 21.8267 14.7621 21.9245L16.1813 53.3744V53.4235C15.8632 53.937 14.6886 54.9396 14.6886 54.9396Z" fill="#939393"/>
<path d="M63.8252 48.5219L52.884 21.8435L52.8595 21.7698H44.3469V23.5631H45.7207C46.1377 23.5631 46.5302 23.735 46.8247 24.0298C47.119 24.3246 47.2662 24.7177 47.2662 25.1353L47.021 51.9857C47.021 52.8208 46.3342 53.5087 45.5 53.5334L44.1017 53.5578V55.3266H52.3935V53.5578L51.5348 53.5334C50.7008 53.5087 50.0138 52.8208 50.0138 51.9857V26.6829L61.9364 55.3266C62.1079 55.7441 62.5004 56.0144 62.9421 56.0144C63.3837 56.0144 63.7762 55.7441 63.9479 55.3266L75.6005 27.3216L75.7723 51.9857C75.7723 52.8455 75.0853 53.5334 74.2268 53.5578H73.3435V55.3266H83.0581V53.5578H81.7334C80.8993 53.5578 80.2123 52.8455 80.1878 52.0102L80.1143 25.1597C80.1143 24.3 80.8011 23.6122 81.6354 23.5876L83.0581 23.5631V21.7698H74.7663L63.8252 48.5219Z" fill="#939393"/>
<path d="M140.113 53.0904C139.842 52.8199 139.695 52.4508 139.695 52.0078V38.8178C139.695 36.3079 138.957 34.3391 137.481 32.9365C136.03 31.5337 134.013 30.8202 131.505 30.8202C127.987 30.8202 125.208 32.2475 123.265 35.0528C123.24 35.102 123.167 35.1267 123.093 35.1267C123.019 35.1267 122.97 35.0773 122.97 35.0037L122.06 31.4845H120.535L116.624 33.7239V34.9542H117.633C118.1 34.9542 118.493 35.0773 118.764 35.3236C119.035 35.5697 119.182 35.9388 119.182 36.4554V51.9831C119.182 52.4261 119.035 52.7952 118.764 53.066C118.493 53.3365 118.125 53.4842 117.682 53.4842H116.698V55.2806H125.7V53.4842H124.716C124.273 53.4842 123.904 53.3365 123.634 53.066C123.363 52.7952 123.216 52.4261 123.216 51.9831V41.697C123.216 40.3928 123.511 39.0885 124.052 37.8088C124.618 36.554 125.454 35.4958 126.561 34.6837C127.668 33.8716 128.996 33.4778 130.521 33.4778C132.242 33.4778 133.546 34.0191 134.358 35.102C135.169 36.1849 135.587 37.5874 135.587 39.2608V51.9587C135.587 52.4014 135.44 52.7705 135.169 53.0413C134.899 53.312 134.53 53.4595 134.087 53.4595H133.103V55.2559H142.105V53.4595H141.121C140.753 53.509 140.408 53.3612 140.113 53.0904Z" fill="#939393"/>
<path d="M222.357 23.7784C219.869 22.4556 217.088 21.7698 214.087 21.7698H202.377V23.558H203.524C203.963 23.558 204.353 23.7295 204.744 24.1214C205.11 24.4888 205.305 24.9054 205.305 25.3461V51.7042C205.305 52.145 205.11 52.5615 204.744 52.9289C204.378 53.2963 203.963 53.4923 203.524 53.4923H202.377V55.2806H214.087C217.088 55.2806 219.869 54.5947 222.357 53.2719C224.845 51.9491 226.87 49.9893 228.334 47.4909C229.797 44.9923 230.553 41.9792 230.553 38.5496C230.553 35.1203 229.797 32.1317 228.334 29.6086C226.846 27.0611 224.845 25.1257 222.357 23.7784ZM225.845 38.5007C225.845 41.6363 225.284 44.2817 224.186 46.4129C223.089 48.5442 221.625 50.1363 219.82 51.1653C218.015 52.1941 216.014 52.7086 213.867 52.7086H211.501C211.062 52.7086 210.672 52.5371 210.281 52.145C209.915 51.7776 209.72 51.3613 209.72 50.9202V26.0567C209.72 25.6157 209.891 25.2238 210.281 24.8317C210.647 24.4643 211.062 24.2684 211.501 24.2684H213.867C216.014 24.2684 218.015 24.7828 219.82 25.8116C221.625 26.8404 223.089 28.4328 224.186 30.5638C225.284 32.7195 225.845 35.3896 225.845 38.5007Z" fill="#939393"/>
<path d="M258.232 40.289C257.149 39.0396 255.059 37.9863 252.602 37.4227C255.995 35.7325 257.74 33.3564 257.74 30.2945C257.74 28.6287 257.299 27.1344 256.412 25.8605C255.527 24.5869 254.273 23.558 252.675 22.8476C251.075 22.1372 249.206 21.7698 247.092 21.7698H233.837V23.558H234.895C235.337 23.558 235.731 23.7295 236.124 24.1214C236.493 24.4888 236.69 24.9054 236.69 25.3461V51.7042C236.69 52.145 236.493 52.5615 236.124 52.9289C235.755 53.2963 235.337 53.4923 234.895 53.4923H233.739V55.2806H248.126C250.314 55.2806 252.354 54.9132 254.199 54.1781C256.044 53.4433 257.519 52.3656 258.578 50.9447C259.658 49.524 260.2 47.7847 260.2 45.776C260.175 43.6203 259.536 41.7831 258.232 40.289ZM241.731 52.1694C241.362 51.802 241.165 51.3857 241.165 50.9447V39.113H248.003C250.412 39.113 252.256 39.7254 253.535 40.9502C254.814 42.1752 255.454 43.7673 255.454 45.7271C255.454 46.9029 255.157 48.0542 254.618 49.1075C254.052 50.1855 253.214 51.0428 252.085 51.7042C250.977 52.3656 249.601 52.7086 248.003 52.7086H242.961C242.518 52.7086 242.125 52.5371 241.731 52.1694ZM241.19 36.5899V26.0812C241.19 25.6401 241.362 25.2483 241.756 24.8562C242.125 24.4888 242.543 24.2929 242.985 24.2929H246.232C248.567 24.2929 250.289 24.8809 251.372 26.0075C252.452 27.1589 252.994 28.6287 252.994 30.4415C252.994 32.3032 252.477 33.7975 251.47 34.9241C250.461 36.0265 248.937 36.5899 246.92 36.5899H241.19Z" fill="#939393"/>
<path d="M105.844 32.3827C103.964 31.3573 101.866 30.8202 99.5962 30.8202C97.3267 30.8202 95.2035 31.3329 93.3487 32.3827C91.4695 33.4079 89.9808 34.897 88.8827 36.7768C87.7846 38.6566 87.2233 40.8539 87.2233 43.295C87.2233 45.7362 87.7846 47.9334 88.8827 49.8132C89.9808 51.693 91.4695 53.1822 93.3487 54.2075C95.228 55.2327 97.3267 55.7698 99.5962 55.7698C101.866 55.7698 103.989 55.2571 105.844 54.2075C107.723 53.1822 109.212 51.693 110.31 49.8132C111.408 47.9334 111.969 45.7362 111.969 43.295C111.969 40.8539 111.408 38.6566 110.31 36.7768C109.212 34.897 107.723 33.4079 105.844 32.3827ZM107.65 43.295C107.65 46.2978 106.918 48.7389 105.453 50.4967C104.013 52.2544 102.037 53.1577 99.5962 53.1577C97.1559 53.1577 95.179 52.2544 93.7393 50.4967C92.2749 48.7389 91.5428 46.2978 91.5428 43.295C91.5428 40.2922 92.2749 37.8511 93.7393 36.0934C95.179 34.3356 97.1559 33.4323 99.5962 33.4323C102.037 33.4323 104.013 34.3356 105.453 36.0934C106.918 37.8511 107.65 40.2922 107.65 43.295Z" fill="#939393"/>
<path d="M192.332 32.3827C190.453 31.3573 188.354 30.8202 186.084 30.8202C183.815 30.8202 181.692 31.3329 179.837 32.3827C177.958 33.4079 176.469 34.897 175.371 36.7768C174.273 38.6566 173.711 40.8539 173.711 43.295C173.711 45.7362 174.273 47.9334 175.371 49.8132C176.469 51.693 177.958 53.1822 179.837 54.2075C181.716 55.2327 183.815 55.7698 186.084 55.7698C188.354 55.7698 190.477 55.2571 192.332 54.2075C194.211 53.1822 195.7 51.693 196.798 49.8132C197.896 47.9334 198.457 45.7362 198.457 43.295C198.457 40.8539 197.896 38.6566 196.798 36.7768C195.7 34.897 194.187 33.4079 192.332 32.3827ZM194.138 43.295C194.138 46.2978 193.406 48.7389 191.941 50.4967C190.501 52.2544 188.525 53.1577 186.084 53.1577C183.644 53.1577 181.667 52.2544 180.227 50.4967C178.763 48.7389 178.031 46.2978 178.031 43.295C178.031 40.2678 178.763 37.8511 180.227 36.0934C181.667 34.3356 183.644 33.4323 186.084 33.4323C188.525 33.4323 190.501 34.3356 191.941 36.0934C193.381 37.8511 194.138 40.2922 194.138 43.295Z" fill="#939393"/>
<path d="M157.453 30.8202C155.486 30.8202 153.692 31.237 152.07 32.0709C150.448 32.9047 149.17 34.0331 148.26 35.4799C147.351 36.9023 146.884 38.4966 146.884 40.1888C146.884 41.7092 147.228 43.1072 147.941 44.3581C148.629 45.5598 149.563 46.5651 150.743 47.399L147.228 52.157C146.786 52.7455 146.737 53.5302 147.056 54.1679C147.4 54.8301 148.039 55.2227 148.777 55.2227H149.784C148.801 55.8848 148.015 56.6695 147.474 57.6014C146.835 58.6559 146.515 59.7596 146.515 60.8877C146.515 62.9969 147.449 64.7382 149.293 66.0381C151.112 67.3379 153.667 68 156.887 68C159.124 68 161.262 67.6322 163.204 66.9209C165.17 66.2098 166.767 65.1551 167.947 63.7818C169.152 62.4084 169.766 60.7407 169.766 58.8276C169.766 56.8167 169.029 55.3941 167.308 54.0209C165.834 52.8681 163.523 52.2551 160.648 52.2551H150.817C150.792 52.2551 150.767 52.2304 150.767 52.2304C150.767 52.2304 150.743 52.1815 150.767 52.157L153.323 48.7235C154.012 49.0422 154.651 49.2384 155.216 49.361C155.806 49.4837 156.469 49.5327 157.207 49.5327C159.271 49.5327 161.139 49.1159 162.761 48.282C164.383 47.4481 165.686 46.32 166.62 44.873C167.554 43.4506 168.021 41.8565 168.021 40.1643C168.021 38.3494 167.136 35.0384 164.727 33.3462C164.727 33.3218 164.752 33.3218 164.752 33.3218L170.036 33.9103V31.4823H161.581C160.254 31.0655 158.878 30.8202 157.453 30.8202ZM160.402 46.1728C159.468 46.6632 158.46 46.933 157.453 46.933C155.806 46.933 154.356 46.3445 153.127 45.1919C151.898 44.0391 151.284 42.3469 151.284 40.1888C151.284 38.0306 151.898 36.3382 153.127 35.1856C154.356 34.0331 155.806 33.4443 157.453 33.4443C158.485 33.4443 159.468 33.6896 160.402 34.2045C161.336 34.6952 162.098 35.4554 162.712 36.461C163.302 37.4666 163.621 38.7172 163.621 40.1888C163.621 41.6848 163.326 42.9354 162.712 43.9165C162.122 44.9221 161.336 45.6823 160.402 46.1728ZM153.741 55.1979H160.402C162.245 55.1979 163.425 55.5658 164.211 56.3508C164.998 57.1355 165.391 58.1899 165.391 59.4164C165.391 61.2066 164.678 62.6782 163.253 63.7818C161.827 64.8855 159.91 65.4496 157.551 65.4496C155.486 65.4496 153.766 64.9836 152.512 64.1006C151.259 63.2178 150.62 61.8688 150.62 60.1522C150.62 59.073 150.915 58.0674 151.505 57.1846C152.094 56.3016 152.807 55.6639 153.741 55.1979Z" fill="#939393"/>
<path d="M265.186 54.8714C264.7 54.6065 264.335 54.2213 264.044 53.7638C263.777 53.2825 263.63 52.7769 263.63 52.2231C263.63 51.6693 263.777 51.1397 264.044 50.6823C264.311 50.2007 264.7 49.8397 265.186 49.5748C265.673 49.3101 266.207 49.1655 266.815 49.1655C267.423 49.1655 267.957 49.3101 268.444 49.5748C268.929 49.8397 269.294 50.2249 269.586 50.6823C269.853 51.1637 270 51.6693 270 52.2231C270 52.7769 269.853 53.3064 269.586 53.7638C269.319 54.2455 268.929 54.6065 268.444 54.8714C267.957 55.1361 267.423 55.2806 266.815 55.2806C266.232 55.2806 265.673 55.1603 265.186 54.8714ZM268.177 54.5343C268.589 54.3176 268.883 53.9806 269.125 53.5953C269.343 53.1861 269.466 52.7287 269.466 52.2231C269.466 51.7175 269.343 51.2601 269.125 50.8509C268.905 50.4416 268.589 50.1285 268.177 49.9118C267.763 49.6951 267.324 49.5748 266.815 49.5748C266.305 49.5748 265.867 49.6951 265.453 49.9118C265.041 50.1285 264.747 50.4656 264.504 50.8509C264.286 51.2601 264.164 51.7175 264.164 52.2231C264.164 52.7287 264.286 53.1861 264.504 53.5953C264.725 54.0045 265.041 54.3176 265.453 54.5343C265.867 54.7511 266.305 54.8714 266.815 54.8714C267.324 54.8714 267.788 54.7511 268.177 54.5343ZM265.502 53.6917V53.475L265.551 53.451H265.698C265.744 53.451 265.793 53.4268 265.818 53.4028C265.867 53.3546 265.867 53.3306 265.867 53.2825V51.0434C265.867 50.9952 265.842 50.9472 265.818 50.923C265.769 50.8748 265.744 50.8748 265.698 50.8748H265.551L265.502 50.8509V50.6341L265.551 50.6102H266.815C267.18 50.6102 267.447 50.6823 267.665 50.8509C267.886 51.0194 267.981 51.2361 267.981 51.525C267.981 51.7417 267.91 51.9582 267.739 52.1027C267.57 52.2713 267.374 52.3676 267.131 52.3916L267.422 52.488L267.981 53.3786C268.03 53.451 268.079 53.475 268.153 53.475H268.297L268.322 53.4992V53.7157L268.297 53.7399H267.545L267.496 53.7157L266.717 52.4156H266.523V53.2825C266.523 53.3306 266.548 53.3786 266.572 53.4028C266.621 53.451 266.646 53.451 266.692 53.451H266.839L266.888 53.475V53.6917L266.839 53.7157H265.551L265.502 53.6917ZM266.741 52.1027C266.937 52.1027 267.106 52.0545 267.204 51.9342C267.3 51.8378 267.374 51.6693 267.374 51.4768C267.374 51.284 267.324 51.1397 267.229 51.0194C267.131 50.899 266.984 50.8509 266.815 50.8509H266.717C266.668 50.8509 266.621 50.8748 266.597 50.899C266.548 50.947 266.548 50.9712 266.548 51.0194V52.1027H266.741Z" fill="#939393"/>
</g>
<defs>
<clipPath id="clip0_13_78">
<rect width="270" height="68" fill="white"/>
</clipPath>
</defs>
</svg>
