<svg width="229" height="68" viewBox="0 0 229 68" fill="none" xmlns="http://www.w3.org/2000/svg">
<g clip-path="url(#clip0_13_88)">
<path d="M201.059 67.7096C200.468 67.7096 199.917 67.5504 199.405 67.2716L194.168 64.1263C193.381 63.6885 193.774 63.5293 194.011 63.4496C195.074 63.0913 195.271 63.0116 196.373 62.3747C196.491 62.2951 196.649 62.3348 196.767 62.4144L200.784 64.8431C200.941 64.9227 201.138 64.9227 201.256 64.8431L216.968 55.6463C217.124 55.5667 217.205 55.4074 217.205 55.2085V36.8547C217.205 36.6556 217.124 36.4963 216.968 36.4167L201.256 27.2598C201.098 27.1802 200.902 27.1802 200.784 27.2598L185.072 36.4167C184.914 36.4963 184.836 36.6955 184.836 36.8547V55.2085C184.836 55.3677 184.914 55.5667 185.072 55.6463L189.364 58.1544C191.687 59.3489 193.144 57.9555 193.144 56.562V38.4471C193.144 38.2083 193.341 37.9694 193.617 37.9694H195.625C195.861 37.9694 196.098 38.1686 196.098 38.4471V56.562C196.098 59.7071 194.404 61.5386 191.451 61.5386C190.546 61.5386 189.837 61.5386 187.828 60.5432L183.694 58.1544C182.67 57.5574 182.04 56.4425 182.04 55.2482V36.8944C182.04 35.7001 182.67 34.5854 183.694 33.9882L199.405 24.7916C200.39 24.234 201.728 24.234 202.713 24.7916L218.425 33.9882C219.448 34.5854 220.078 35.7001 220.078 36.8944V55.2482C220.078 56.4425 219.448 57.5574 218.425 58.1544L202.713 67.3512C202.24 67.5504 201.65 67.7096 201.059 67.7096Z" fill="#939393"/>
<path d="M205.942 55.0889C199.051 55.0889 197.633 51.9039 197.633 49.1966C197.633 48.9577 197.83 48.7188 198.105 48.7188H200.153C200.389 48.7188 200.586 48.8781 200.586 49.117C200.901 51.227 201.807 52.262 205.982 52.262C209.289 52.262 210.707 51.5058 210.707 49.7142C210.707 48.6789 210.312 47.9224 205.154 47.405C200.862 46.967 198.184 46.0116 198.184 42.5478C198.184 39.3231 200.862 37.412 205.351 37.412C210.392 37.412 212.872 39.1638 213.187 42.9858C213.187 43.1051 213.148 43.2247 213.07 43.344C212.99 43.4236 212.872 43.5034 212.753 43.5034H210.666C210.47 43.5034 210.273 43.344 210.234 43.145C209.76 40.9554 208.54 40.2386 205.312 40.2386C201.689 40.2386 201.256 41.5127 201.256 42.4682C201.256 43.6228 201.767 43.9812 206.65 44.6181C211.493 45.2551 213.778 46.1708 213.778 49.5947C213.778 53.0982 210.903 55.0889 205.942 55.0889Z" fill="#939393"/>
<path d="M228.625 35.8198C228.625 37.4918 227.246 38.8853 225.592 38.8853C223.939 38.8853 222.56 37.5318 222.56 35.8198C222.56 34.068 223.978 32.7542 225.592 32.7542C227.207 32.7542 228.625 34.1079 228.625 35.8198ZM223.033 35.8198C223.033 37.253 224.176 38.4076 225.552 38.4076C226.971 38.4076 228.113 37.2133 228.113 35.8198C228.113 34.3865 226.971 33.2718 225.552 33.2718C224.215 33.2718 223.033 34.3865 223.033 35.8198ZM224.451 34.1079H225.633C226.026 34.1079 226.814 34.1079 226.814 35.0234C226.814 35.6606 226.419 35.7799 226.182 35.8595C226.656 35.8994 226.695 36.2179 226.734 36.6557C226.773 36.9345 226.814 37.4122 226.892 37.5715H226.182C226.182 37.4122 226.065 36.5364 226.065 36.4965C226.026 36.2975 225.948 36.2179 225.711 36.2179H225.12V37.6114H224.451V34.1079ZM225.081 35.6207H225.592C226.026 35.6207 226.104 35.3022 226.104 35.143C226.104 34.6652 225.789 34.6652 225.592 34.6652H225.042V35.6207H225.081Z" fill="#939393"/>
<path fill-rule="evenodd" clip-rule="evenodd" d="M37.3688 36.0702C37.3688 35.3536 36.975 34.6768 36.345 34.3184L19.6885 24.5644C19.4129 24.4052 19.0979 24.3256 18.7828 24.2856C18.7435 24.2856 18.6253 24.2856 18.6253 24.2856C18.3103 24.2856 17.9953 24.4052 17.7197 24.5644L1.0238 34.2787C0.393771 34.6369 0 35.3137 0 36.0702L0.0393771 62.1872C0.0393771 62.5456 0.236263 62.904 0.551279 63.0633C0.866295 63.2622 1.26007 63.2622 1.53571 63.0633L11.4587 57.3302C12.0888 56.9718 12.4825 56.2951 12.4825 55.5784V43.356C12.4825 42.6394 12.8763 41.9625 13.5063 41.6041L17.7197 39.1357C18.0347 38.9368 18.3891 38.8571 18.7435 38.8571C19.0979 38.8571 19.4523 38.9368 19.7279 39.1357L23.9412 41.6041C24.5712 41.9625 24.9651 42.6394 24.9651 43.356V55.5784C24.9651 56.2951 25.3589 56.9718 25.9889 57.3302L35.8332 63.0633C36.1481 63.2622 36.5418 63.2622 36.8569 63.0633C37.172 62.904 37.3688 62.5456 37.3688 62.1872V36.0702Z" fill="#939393"/>
<path fill-rule="evenodd" clip-rule="evenodd" d="M117.62 0.119438C117.305 -0.0398127 116.911 -0.0398127 116.635 0.119438C116.32 0.318501 116.123 0.637003 116.123 0.995318V26.8735C116.123 27.1124 116.005 27.3512 115.769 27.5107C115.532 27.63 115.296 27.63 115.06 27.5107L110.886 25.0819C110.256 24.7238 109.508 24.7238 108.878 25.0819L92.1819 34.8361C91.5519 35.1945 91.1582 35.8712 91.1582 36.5878V56.0562C91.1582 56.773 91.5519 57.4496 92.1819 57.808L108.878 67.5622C109.508 67.9204 110.256 67.9204 110.886 67.5622L127.582 57.808C128.212 57.4496 128.606 56.773 128.606 56.0562V7.5246C128.606 6.76815 128.212 6.09134 127.582 5.73303L117.62 0.119438ZM116.084 49.6465C116.084 49.8454 116.005 50.0046 115.848 50.0843L110.138 53.4287C109.98 53.5083 109.783 53.5083 109.626 53.4287L103.916 50.0843C103.759 50.0046 103.68 49.8057 103.68 49.6465V42.958C103.68 42.7588 103.759 42.5996 103.916 42.52L109.626 39.1757C109.783 39.0961 109.98 39.0961 110.138 39.1757L115.848 42.52C116.005 42.5996 116.084 42.7987 116.084 42.958V49.6465Z" fill="#939393"/>
<path fill-rule="evenodd" clip-rule="evenodd" d="M173.179 42.7986C173.809 42.4402 174.163 41.7634 174.163 41.0468V36.3091C174.163 35.5925 173.77 34.9156 173.179 34.5572L156.601 24.843C155.971 24.4848 155.223 24.4848 154.593 24.843L137.897 34.5972C137.267 34.9555 136.873 35.6322 136.873 36.349V55.8172C136.873 56.534 137.267 57.2107 137.897 57.5691L154.475 67.1241C155.105 67.4825 155.853 67.4825 156.444 67.1241L166.485 61.4706C166.8 61.3114 166.997 60.9532 166.997 60.5948C166.997 60.2364 166.8 59.8783 166.485 59.719L149.71 49.9648C149.395 49.7657 149.198 49.4472 149.198 49.089V42.9976C149.198 42.6394 149.395 42.281 149.71 42.1218L154.947 39.096C155.263 38.8968 155.656 38.8968 155.971 39.096L161.208 42.1218C161.523 42.3207 161.72 42.6394 161.72 42.9976V47.7752C161.72 48.1334 161.917 48.4918 162.232 48.651C162.547 48.8502 162.941 48.8502 163.256 48.651L173.179 42.7986Z" fill="#939393"/>
<path fill-rule="evenodd" clip-rule="evenodd" d="M155.342 41.883C155.46 41.8033 155.617 41.8033 155.736 41.883L158.925 43.7541C159.043 43.8338 159.122 43.9531 159.122 44.1123V47.8549C159.122 48.0141 159.043 48.1334 158.925 48.2131L155.736 50.0842C155.617 50.1638 155.46 50.1638 155.342 50.0842L152.152 48.2131C152.034 48.1334 151.955 48.0141 151.955 47.8549V44.1123C151.955 43.9531 152.034 43.8338 152.152 43.7541L155.342 41.883Z" fill="#939393"/>
<path d="M65.286 24.9227C64.6558 24.5645 63.9076 24.5645 63.2776 24.9227L46.6999 34.5972C46.0699 34.9556 45.7155 35.6323 45.7155 36.3491V55.7377C45.7155 56.4545 46.1092 57.1311 46.6999 57.4895L63.2776 67.1641C63.9076 67.5223 64.6558 67.5223 65.286 67.1641L81.8635 57.4895C82.4937 57.1311 82.8479 56.4545 82.8479 55.7377V36.3491C82.8479 35.6323 82.4542 34.9556 81.8635 34.5972L65.286 24.9227Z" fill="#939393"/>
<path d="M81.9029 34.5973L65.2465 24.9228C65.0889 24.8432 64.8921 24.7635 64.7345 24.7236L46.0699 57.0117C46.2274 57.2109 46.4242 57.3701 46.6211 57.4896L63.2777 67.164C63.7501 67.4427 64.3014 67.5224 64.8133 67.3631L82.3362 34.9555C82.218 34.7963 82.0604 34.677 81.9029 34.5973Z" fill="#939393"/>
<path d="M62.7268 21.3795L62.4905 21.4988H62.8056L62.7268 21.3795Z" fill="#939393"/>
<path d="M81.9034 57.4895C82.3759 57.2107 82.7303 56.733 82.8878 56.2154L64.6561 24.6838C64.1838 24.6042 63.6717 24.6441 63.2387 24.9226L46.7002 34.5573L64.538 67.4426C64.7742 67.4029 65.05 67.3233 65.2863 67.2037L81.9034 57.4895Z" fill="#939393"/>
<path d="M83.4779 57.1712L83.3597 56.972V57.2508L83.4779 57.1712Z" fill="#939393"/>
<path d="M81.9042 57.4895L65.2871 67.1638C65.0508 67.2834 64.8145 67.363 64.5389 67.4029L64.8538 67.9999L83.2823 57.2107V56.9719L82.8097 56.1757C82.7704 56.733 82.416 57.2107 81.9042 57.4895Z" fill="#939393"/>
<path d="M81.9042 57.4895L65.2871 67.1638C65.0508 67.2834 64.8145 67.363 64.5389 67.4029L64.8538 67.9999L83.2823 57.2107V56.9719L82.8097 56.1757C82.7704 56.733 82.416 57.2107 81.9042 57.4895Z" fill="#939393"/>
</g>
<defs>
<clipPath id="clip0_13_88">
<rect width="228.63" height="68" fill="white"/>
</clipPath>
</defs>
</svg>
