<svg width="77" height="68" viewBox="0 0 77 68" fill="none" xmlns="http://www.w3.org/2000/svg">
<g clip-path="url(#clip0_13_107)">
<path d="M38.2145 40.8121C41.9767 40.8121 45.0266 37.7622 45.0266 34C45.0266 30.2378 41.9767 27.1879 38.2145 27.1879C34.4522 27.1879 31.4023 30.2378 31.4023 34C31.4023 37.7622 34.4522 40.8121 38.2145 40.8121Z" fill="#939393"/>
<path d="M38.2144 47.9566C58.4021 47.9566 74.7673 41.708 74.7673 34C74.7673 26.292 58.4021 20.0435 38.2144 20.0435C18.0268 20.0435 1.6615 26.292 1.6615 34C1.6615 41.708 18.0268 47.9566 38.2144 47.9566Z" stroke="#939393"/>
<path d="M26.1276 40.9783C36.2214 58.4613 49.8155 69.5098 56.4908 65.6558C63.1662 61.8018 60.3949 44.5047 50.3011 27.0217C40.2073 9.53873 26.6132 -1.50975 19.9379 2.34425C13.2626 6.19825 16.0338 23.4953 26.1276 40.9783Z" stroke="#939393"/>
<path d="M26.1277 27.0217C16.0339 44.5047 13.2626 61.8017 19.938 65.6557C26.6133 69.5097 40.2074 58.4613 50.3012 40.9783C60.395 23.4953 63.1662 6.19823 56.4909 2.34422C49.8156 -1.50978 36.2215 9.5387 26.1277 27.0217Z" stroke="#939393"/>
</g>
<defs>
<clipPath id="clip0_13_107">
<rect width="76.4288" height="68" fill="white"/>
</clipPath>
</defs>
</svg>
