<svg width="68" height="68" viewBox="0 0 68 68" fill="none" xmlns="http://www.w3.org/2000/svg">
<g clip-path="url(#clip0_124_6)">
<path d="M64.8125 0H3.1875C1.42709 0 0 1.42709 0 3.1875V64.8125C0 66.5729 1.42709 68 3.1875 68H64.8125C66.5729 68 68 66.5729 68 64.8125V3.1875C68 1.42709 66.5729 0 64.8125 0Z" fill="#939393"/>
<path fill-rule="evenodd" clip-rule="evenodd" d="M39.4518 52.8424V60.2937C40.659 60.9142 42.0867 61.3801 43.735 61.6903C45.3833 62.0011 47.1205 62.1562 48.9468 62.1562C50.7267 62.1562 52.4175 61.9857 54.0191 61.6441C55.6213 61.3025 57.0254 60.7399 58.233 59.9558C59.44 59.1717 60.3957 58.1474 61.1001 56.882C61.804 55.6171 62.1562 54.0531 62.1562 52.1904C62.1562 50.8399 61.9549 49.6563 61.5527 48.6394C61.1501 47.6227 60.5699 46.7185 59.8113 45.9268C59.0532 45.1351 58.1437 44.4249 57.0839 43.7963C56.0235 43.1676 54.8282 42.5738 53.4969 42.015C52.5219 41.6114 51.6475 41.2194 50.8737 40.8391C50.0998 40.4588 49.4421 40.0707 48.9004 39.6749C48.3587 39.279 47.9408 38.8599 47.6468 38.4175C47.3527 37.9751 47.2057 37.4744 47.2057 36.9156C47.2057 36.4033 47.3372 35.9415 47.6003 35.5302C47.8634 35.1188 48.2349 34.7656 48.7147 34.4707C49.1944 34.1758 49.7825 33.9468 50.479 33.7838C51.1755 33.6208 51.9493 33.5393 52.8005 33.5393C53.4198 33.5393 54.0733 33.5859 54.7623 33.679C55.4508 33.7721 56.1436 33.9157 56.84 34.1098C57.5365 34.3038 58.2133 34.5483 58.8715 34.8433C59.5292 35.1382 60.1364 35.4797 60.6937 35.8678V28.9057C59.5638 28.471 58.3297 28.1489 56.9909 27.9393C55.6522 27.7298 54.1163 27.625 52.3826 27.625C50.6183 27.625 48.9468 27.8151 47.3682 28.1955C45.7896 28.5758 44.4005 29.1696 43.201 29.9767C42.0016 30.784 41.0536 31.8124 40.3572 33.062C39.6607 34.3116 39.3125 35.8057 39.3125 37.5443C39.3125 39.7641 39.9509 41.6579 41.2278 43.2257C42.5046 44.7936 44.443 46.1208 47.0431 47.2075C48.0646 47.6266 49.0165 48.038 49.8986 48.4416C50.7808 48.8451 51.543 49.2642 52.1853 49.6989C52.8276 50.1336 53.3343 50.607 53.7057 51.1193C54.0775 51.6316 54.2629 52.2136 54.2629 52.8656C54.2629 53.3471 54.1471 53.7933 53.915 54.2045C53.6828 54.6157 53.3306 54.9727 52.8586 55.2755C52.3865 55.5783 51.7984 55.8153 51.0942 55.9858C50.39 56.1563 49.5659 56.2418 48.6218 56.2418C47.0122 56.2418 45.4181 55.9587 43.8394 55.3918C42.2608 54.8255 40.7983 53.9755 39.4518 52.8424ZM26.9358 34.2945H36.6562V28.1562H9.5625V34.2945H19.2354V61.625H26.9358V34.2945Z" fill="white"/>
</g>
<defs>
<clipPath id="clip0_124_6">
<rect width="68" height="68" fill="white"/>
</clipPath>
</defs>
</svg>
